PathFileType	4	(X/Y/Z)	9_coords_data.trc
DataRate	CameraRate	NumFrames	NumMarkers	Units	OrigDataRate	OrigDataStartFrame	OrigNumFrames
30.0	30.0	4	21	m	30.0	1	47
Frame#	Time	THUMB_TIP	THUMB_IP	THUMB_MCP	THUMB_CMC	INDEX_TIP	INDEX_DIP	INDEX_PIP	INDEX_MCP	MIDDLE_TIP	MIDDLE_DIP	MIDDLE_PIP	MIDDLE_MCP	RING_TIP	RING_DIP	RING_PIP	RING_MCP	PINKY_TIP	PINKY_DIP	PINKY_PIP	PINKY_MCP	WRIST
X1	Y1	Z1	X2	Y2	Z2	X3	Y3	Z3	X4	Y4	Z4	X5	Y5	Z5	X6	Y6	Z6	X7	Y7	Z7	X8	Y8	Z8	X9	Y9	Z9	X10	Y10	Z10	X11	Y11	Z11	X12	Y12	Z12	X13	Y13	Z13	X14	Y14	Z14	X15	Y15	Z15	X16	Y16	Z16	X17	Y17	Z17	X18	Y18	Z18	X19	Y19	Z19	X20	Y20	Z20	X21	Y21	Z21
0	-2.749317978547796e-18	0.4634330339585584	-0.02767456141646274	-0.1697746532640525	0.47277845710716404	-0.03159744835152223	-0.14915248014218563	0.4735007771795132	-0.0339013192219465	-0.1181203929947589	0.47656097221010774	-0.035187893971732276	-0.0736359020817684	0.5561577314480467	0.031835386693233825	-0.17642042716122508	0.5487973413027637	0.020502136357211764	-0.16436297744205663	0.536651582486003	0.007237033384604019	-0.14679802885428123	0.5173480702583142	-0.014490124177059527	-0.11567020956082413	0.5781948698098599	0.05399416399038903	-0.1439526273655357	0.5701725664635421	0.039356790439368794	-0.1369248293784312	0.5526784402516771	0.02164129913885049	-0.12177469848577538	0.527127161781252	-0.00682563921128343	-0.09868977893866726	0.5916506711035028	0.04838463335233356	-0.10665680023386181	0.5803247682033438	0.03607947524507782	-0.09992575221356004	0.5622905660685802	0.020987843660719152	-0.09172879006380696	0.53603932085723	-0.006843747772466879	-0.07865226616982901	0.603940920014252	0.011487944393600125	-0.04062420295696545	0.5881995734284873	0.005130109867919064	-0.042812340934993975	0.5681128173605913	0.00048743049846278197	-0.04678471779793958	0.5350600850261458	-0.010899812725444713	-0.05565776845637038	0.4622830810018609	-0.023011742144276925	-0.051989820119430985
1	0.03333333333333339	0.4636248157817989	-0.027847546744794505	-0.17054111003560218	0.4729029436422232	-0.031496433748649744	-0.14983840569441254	0.47312087569297623	-0.03366723892122758	-0.11878908830217394	0.47624354275210135	-0.034335966662006445	-0.07429536117523416	0.5558519135066293	0.031943812099316626	-0.1770130137076566	0.5484816553516397	0.020742374345654957	-0.16483898039984735	0.5363609231058484	0.007721161243374075	-0.1470753745673924	0.5168081988513943	-0.01394051151091491	-0.11605765379820349	0.5778026613913616	0.05404651832975649	-0.14517371491463826	0.5694216827463614	0.03968642365743735	-0.13799409946852392	0.5520613876998421	0.02191244210496779	-0.12275876928929008	0.5266169879170411	-0.006252616834977576	-0.09919057259114616	0.591073148124994	0.04890297586568215	-0.10819768490152404	0.5797824668650249	0.03663028434827098	-0.10134921356813553	0.5617904596990952	0.021643305522992873	-0.09287229650874396	0.5354634948874208	-0.006096240776205075	-0.07975248976780758	0.6036942385493265	0.012683489355436617	-0.04231161658928495	0.5878669210771014	0.006496578204317149	-0.04436543061240217	0.5677952671540021	0.0015463790414159684	-0.04803098050824928	0.5348391249711208	-0.010069647294394302	-0.05696653172725552	0.4622830810018609	-0.023011742144276925	-0.051989820119430985
2	0.06666666666666676	0.4637501436765631	-0.02791142958420101	-0.17105476657889335	0.4729938836581491	-0.03138338014372599	-0.15030630084127694	0.4728442314265425	-0.03348821503564847	-0.11925203745784885	0.47599871634311697	-0.03370054350429186	-0.07475603604724446	0.5556756799443883	0.031993117282248296	-0.17740574250776875	0.5482944451442553	0.0208944594380035	-0.16514453673991342	0.5361900873675192	0.008048042743759143	-0.14724303026893149	0.5164399379864163	-0.013562497118419281	-0.11631485120372759	0.5774683106086628	0.05417550269131033	-0.14593073482090074	0.5688349346705878	0.04000936538476507	-0.13866538047827082	0.5515929074857456	0.02214659742024938	-0.12339961586581066	0.526262713943905	-0.005870162608923701	-0.09953352331590548	0.5906087533164486	0.049298958111864355	-0.10925267434683728	0.5793575536141194	0.037033750592639025	-0.10232626187221172	0.561407333892583	0.022106005812222662	-0.09365838861983178	0.5350462951807938	-0.0055968151833419855	-0.08052940614123671	0.6034974290453011	0.01345443961932169	-0.043467077594312786	0.5876044392176187	0.007411468208579186	-0.04544074698560696	0.5675479662654017	0.002250859477368694	-0.04889299686653126	0.5346626564072333	-0.009495454709580686	-0.057918735038765434	0.4622830810018609	-0.023011742144276925	-0.051989820119430985
3	0.10000000000000014	0.46381466026538454	-0.027877480368773022	-0.17138238044448761	0.4730537071621904	-0.031255750536963944	-0.15061636727129207	0.47265730245461635	-0.03334847918087225	-0.1195634551674204	0.47582079161673874	-0.033249502070714865	-0.07506769649479195	0.5556031777215993	0.03199776010506228	-0.17764122324622894	0.5482100592628787	0.02097441554050905	-0.16531938596169782	0.5361146070601166	0.00824575084059731	-0.14732797234386558	0.5162132988313469	-0.013326387121732397	-0.11646996060432341	0.5771927227271935	0.05437026471950879	-0.14631547212898605	0.5683945550062302	0.04032339750467284	-0.13901631010841337	0.55125334922617	0.02235134937971406	-0.12376527405836774	0.5260397900632637	-0.005643256033533772	-0.09975014501238533	0.5902519563147984	0.04959579534051484	-0.10991650284913745	0.5790412461588215	0.03731909210443496	-0.10294495098087275	0.5611294009560135	0.02241546966473007	-0.09415701501129647	0.5347691749919657	-0.0052960885937114455	-0.08104485042975829	0.6033652054894295	0.013868692050283071	-0.04417891838278065	0.5874224041239792	0.007945952552875668	-0.04611495595153836	0.5673761700854798	0.0026612324034958057	-0.049436439477983596	0.5345377406271721	-0.009133125236359563	-0.05856957308999988	0.4622830810018608	-0.023011742144276925	-0.051989820119430985
